<?xml version="1.0" standalone="no"?>
<!DOCTYPE svg PUBLIC "-//W3C//DTD SVG 20010904//EN"
 "http://www.w3.org/TR/2001/REC-SVG-20010904/DTD/svg10.dtd">
<svg version="1.0" xmlns="http://www.w3.org/2000/svg"
 width="260.000000pt" height="260.000000pt" viewBox="0 0 260.000000 260.000000"
 preserveAspectRatio="xMidYMid meet">
<metadata>
Created by potrace 1.11, written by Peter Selinger 2001-2013
</metadata>
<g transform="translate(0.000000,260.000000) scale(0.100000,-0.100000)"
fill="#000000" stroke="none">
<path d="M400 1290 c0 -1053 0 -1060 20 -1060 20 0 20 7 20 280 0 154 3 280 6
280 3 0 195 -116 425 -257 356 -219 419 -260 419 -280 0 -16 6 -23 20 -23 14
0 20 7 20 24 0 20 30 43 205 150 113 69 210 126 215 126 5 0 101 -57 215 -127
173 -106 205 -130 205 -150 0 -18 5 -23 25 -23 l25 0 0 1060 0 1060 -25 0
c-20 0 -25 -5 -25 -25 l0 -25 -420 0 -420 0 0 25 c0 18 -5 25 -20 25 -15 0
-20 -7 -20 -25 l0 -25 -425 0 -425 0 0 25 c0 18 -5 25 -20 25 -20 0 -20 -7
-20 -1060z m890 810 l0 -150 -170 0 -170 0 -213 141 c-116 78 -216 145 -221
150 -6 5 157 9 382 9 l392 0 0 -150z m814 141 c-5 -5 -106 -72 -225 -150
l-216 -141 -166 0 -167 0 0 150 0 150 392 0 c225 0 388 -4 382 -9z m-1456
-142 c108 -72 201 -135 206 -140 6 -5 -80 -9 -202 -9 l-212 0 0 140 c0 77 2
140 5 140 3 0 94 -59 203 -131z m1522 -9 l0 -140 -212 0 -213 0 210 140 c116
77 211 140 213 140 1 0 2 -63 2 -140z m-1162 -231 c42 -29 81 -56 86 -60 6 -5
-135 -9 -322 -9 l-332 0 0 60 0 60 245 0 246 0 77 -51z m282 -9 l0 -60 -50 0
c-45 0 -61 7 -128 51 -42 29 -81 56 -86 60 -6 5 49 9 127 9 l137 0 0 -60z
m225 0 c-78 -52 -96 -60 -137 -60 l-48 0 0 60 0 60 138 0 137 0 -90 -60z m655
0 l0 -60 -332 0 -333 0 90 60 90 60 243 0 242 0 0 -60z m-880 -125 l0 -25
-425 0 -425 0 0 25 0 25 425 0 425 0 0 -25z m880 0 l0 -25 -420 0 -420 0 0 25
0 25 420 0 420 0 0 -25z m-956 -83 c-5 -5 -126 -86 -270 -180 l-261 -172 -121
0 -122 0 0 180 0 180 392 0 c216 0 388 -4 382 -8z m956 -172 l0 -180 -118 0
-118 0 -273 180 -273 180 391 0 391 0 0 -180z m-880 -10 l0 -170 -262 0 c-144
0 -259 2 -257 4 12 12 505 335 512 336 4 0 7 -76 7 -170z m307 0 l258 -170
-262 0 -263 0 0 170 c0 94 2 170 4 170 3 0 121 -76 263 -170z m-993 -219 c-5
-4 -44 -32 -86 -60 l-78 -52 0 61 0 60 87 0 c50 0 83 -4 77 -9z m686 -61 l0
-70 -397 0 c-218 0 -393 3 -390 7 4 3 48 34 99 69 l93 63 298 0 297 1 0 -70z
m726 3 c57 -36 104 -68 104 -70 0 -1 -178 -3 -395 -3 l-395 0 0 70 0 70 291 0
292 0 103 -67z m154 12 c0 -30 -2 -55 -5 -55 -3 0 -42 25 -88 55 l-82 55 88 0
87 0 0 -55z m-880 -185 l0 -60 -425 0 -425 0 0 60 0 60 425 0 425 0 0 -60z
m880 0 l0 -60 -420 0 -420 0 0 60 0 60 420 0 420 0 0 -60z m-880 -125 l0 -25
-425 0 -425 0 0 25 0 25 425 0 425 0 0 -25z m880 0 l0 -25 -420 0 -420 0 0 25
0 25 420 0 420 0 0 -25z m-880 -316 l0 -241 -32 19 c-63 38 -743 455 -747 459
-2 2 172 4 387 4 l392 0 0 -241z m659 140 c-90 -55 -172 -105 -182 -111 -20
-10 -37 -1 -267 141 l-115 71 365 0 364 0 -165 -101z m-411 -44 c89 -55 162
-102 162 -105 0 -3 -69 -47 -153 -98 -83 -51 -167 -102 -184 -113 l-33 -21 0
231 0 232 23 -13 c13 -7 96 -58 185 -113z m630 -220 l-3 -114 -182 112 c-101
62 -182 115 -180 119 1 4 83 57 182 118 l180 110 3 -115 c1 -63 1 -167 0 -230z"/>
</g>
</svg>
