<?xml version="1.0" encoding="utf-8"?>
<!-- Generator: Adobe Illustrator 19.0.1, SVG Export Plug-In . SVG Version: 6.00 Build 0)  -->
<svg version="1.1" id="Layer_1" xmlns="http://www.w3.org/2000/svg" xmlns:xlink="http://www.w3.org/1999/xlink" x="0px" y="0px"
	 viewBox="0 0 42.5 37.5" style="enable-background:new 0 0 42.5 37.5;" xml:space="preserve">
<style type="text/css">
	.st0{fill:none;stroke:#64AAE0;stroke-width:4;stroke-linecap:round;stroke-linejoin:round;stroke-miterlimit:10;}
	.st1{fill:none;stroke:#64A9DF;stroke-width:4;stroke-linecap:round;stroke-linejoin:round;stroke-miterlimit:10;}
</style>
<g>
	<path class="st0" d="M-771.5,45.8v36.4h-21.1V62.6c0-4.9-4-9-9-9l0,0c-4.9,0-9,4-9,9v19.6h-21.1V45.8"/>
	<polyline class="st0" points="-841.1,42.2 -801.6,13.4 -761.8,42.2 	"/>
</g>
<g>
	<polygon class="st1" points="-357.7,31.4 -400.2,60.7 -442.9,31.5 	"/>
	<polyline class="st1" points="-382.9,61.4 -357.7,80.9 -442.9,80.9 -417.6,61.4 	"/>
	<line class="st1" x1="-442.9" y1="31.5" x2="-442.9" y2="80.9"/>
	<line class="st1" x1="-357.7" y1="31.4" x2="-357.7" y2="80.9"/>
</g>
<g>
	<circle class="st0" cx="-550" cy="49.2" r="34.7"/>
	<path class="st0" d="M-547.5,14.6c0,0,15.5,11.5,15.6,34.6c0,10.9-4.2,23.7-15.6,34.7"/>
	<path class="st0" d="M-551.7,14.6c0,0-15.5,11.5-15.6,34.6c0,10.9,4.2,23.7,15.6,34.7"/>
	<line class="st0" x1="-549.7" y1="14.5" x2="-549.7" y2="83.9"/>
	<line class="st0" x1="-584.8" y1="49.2" x2="-515.3" y2="49.2"/>
	<path class="st0" d="M-574.8,24.9c0,0,22.1,20.6,50.1,0.6"/>
	<path class="st0" d="M-573.5,74.8c5-3.9,24.1-16.3,47.5-0.5"/>
</g>
<path class="st1" d="M-656.8,65.9c-13.2-13.4-28.6-28.9-28.6-28.9c3.8-2.3,6.9-6.7,6.9-6.7c-7.1-10.5-17.6-17.8-17.6-17.8
	c-7.6,5.2-9.2,13.2-9.2,13.2c-2.5,16.4,23.7,40.3,23.7,40.3c20.4,19.9,34.2,19.9,34.2,19.9c8.2,0.1,15.7-9.4,15.7-9.4
	c-9-11.3-18-17.4-18-17.4S-653.5,62.1-656.8,65.9"/>
<circle class="st0" cx="-604.1" cy="176.4" r="34.7"/>
<polyline class="st0" points="-604.1,150.1 -604.1,178.2 -583,185.5 "/>
<circle class="st0" cx="-168.8" cy="19" r="16.2"/>
<polyline class="st0" points="-168.8,6.7 -168.8,19.8 -159,23.3 "/>
<g>
	<polygon class="st1" points="-81,3.8 -107.5,22.2 -134.2,3.9 	"/>
	<polyline class="st1" points="-96.7,22.6 -80.9,34.8 -134.2,34.8 -118.4,22.6 	"/>
	<line class="st1" x1="-134.2" y1="3.9" x2="-134.2" y2="34.8"/>
	<line class="st1" x1="-81" y1="3.8" x2="-80.9" y2="34.8"/>
</g>
<path class="st1" d="M-25.3,26c-5.8-5.9-12.5-12.6-12.5-12.6c1.7-1,3-2.9,3-2.9c-3.1-4.6-7.7-7.8-7.7-7.8c-3.3,2.3-4,5.8-4,5.8
	c-1.1,7.2,10.4,17.6,10.4,17.6c8.9,8.7,15,8.7,15,8.7c3.6,0.1,6.9-4.1,6.9-4.1c-3.9-5-7.9-7.6-7.9-7.6S-23.9,24.4-25.3,26"/>
<g>
	<path class="st0" d="M35.3,17.6v16.9h-9.8v-9.2c0-2.3-1.9-4.2-4.2-4.2h0c-2.3,0-4.2,1.9-4.2,4.2v9.2H7.3V17.6"/>
	<polyline class="st0" points="2.9,16 21.3,2.5 39.9,16 	"/>
</g>
</svg>
