<?xml version="1.0" encoding="utf-8"?>
<!-- Generator: Adobe Illustrator 19.0.1, SVG Export Plug-In . SVG Version: 6.00 Build 0)  -->
<svg version="1.1" id="Layer_1" xmlns="http://www.w3.org/2000/svg" xmlns:xlink="http://www.w3.org/1999/xlink" x="0px" y="0px"
	 viewBox="0 0 37.5 37.5" style="enable-background:new 0 0 37.5 37.5;" xml:space="preserve">
<style type="text/css">
	.st0{fill:none;stroke:#64AAE0;stroke-width:4;stroke-linecap:round;stroke-linejoin:round;stroke-miterlimit:10;}
	.st1{fill:none;stroke:#64A9DF;stroke-width:4;stroke-linecap:round;stroke-linejoin:round;stroke-miterlimit:10;}
</style>
<g>
	<path class="st0" d="M-722.3,45.8v36.4h-21.1V62.6c0-4.9-4-9-9-9h0c-4.9,0-9,4-9,9v19.6h-21.1V45.8"/>
	<polyline class="st0" points="-791.9,42.2 -752.4,13.4 -712.6,42.2 	"/>
</g>
<g>
	<polygon class="st1" points="-308.5,31.4 -351,60.7 -393.6,31.5 	"/>
	<polyline class="st1" points="-333.7,61.4 -308.4,80.9 -393.6,80.9 -368.4,61.4 	"/>
	<line class="st1" x1="-393.6" y1="31.5" x2="-393.6" y2="80.9"/>
	<line class="st1" x1="-308.5" y1="31.4" x2="-308.4" y2="80.9"/>
</g>
<g>
	<circle class="st0" cx="-500.8" cy="49.2" r="34.7"/>
	<path class="st0" d="M-498.3,14.6c0,0,15.5,11.5,15.6,34.6c0,10.9-4.2,23.7-15.6,34.7"/>
	<path class="st0" d="M-502.4,14.6c0,0-15.5,11.5-15.6,34.6c0,10.9,4.2,23.7,15.6,34.7"/>
	<line class="st0" x1="-500.5" y1="14.5" x2="-500.5" y2="83.9"/>
	<line class="st0" x1="-535.5" y1="49.2" x2="-466.1" y2="49.2"/>
	<path class="st0" d="M-525.6,24.9c0,0,22.1,20.6,50.1,0.6"/>
	<path class="st0" d="M-524.3,74.8c5-3.9,24.1-16.3,47.5-0.5"/>
</g>
<path class="st1" d="M-607.6,65.9c-13.2-13.4-28.6-28.9-28.6-28.9c3.8-2.3,6.9-6.7,6.9-6.7c-7.1-10.5-17.6-17.8-17.6-17.8
	c-7.6,5.2-9.2,13.2-9.2,13.2c-2.5,16.4,23.7,40.3,23.7,40.3c20.4,19.9,34.2,19.9,34.2,19.9c8.2,0.1,15.7-9.4,15.7-9.4
	c-9-11.3-18-17.4-18-17.4S-604.3,62.1-607.6,65.9"/>
<circle class="st0" cx="-554.9" cy="176.4" r="34.7"/>
<polyline class="st0" points="-554.9,150.1 -554.9,178.2 -533.8,185.5 "/>
<circle class="st0" cx="-119.6" cy="19" r="16.2"/>
<polyline class="st0" points="-119.6,6.7 -119.6,19.8 -109.8,23.3 "/>
<g>
	<polygon class="st1" points="-31.7,3.8 -58.3,22.2 -85,3.9 	"/>
	<polyline class="st1" points="-47.5,22.6 -31.7,34.8 -85,34.8 -69.2,22.6 	"/>
	<line class="st1" x1="-85" y1="3.9" x2="-85" y2="34.8"/>
	<line class="st1" x1="-31.7" y1="3.8" x2="-31.7" y2="34.8"/>
</g>
<path class="st1" d="M23.9,26c-5.8-5.9-12.5-12.6-12.5-12.6c1.7-1,3-2.9,3-2.9c-3.1-4.6-7.7-7.8-7.7-7.8c-3.3,2.3-4,5.8-4,5.8
	c-1.1,7.2,10.4,17.6,10.4,17.6c8.9,8.7,15,8.7,15,8.7c3.6,0.1,6.9-4.1,6.9-4.1c-3.9-5-7.9-7.6-7.9-7.6S25.4,24.4,23.9,26"/>
</svg>
