<?xml version="1.0" encoding="utf-8"?>
<!-- Generator: Adobe Illustrator 19.0.1, SVG Export Plug-In . SVG Version: 6.00 Build 0)  -->
<svg version="1.1" id="Layer_1" xmlns="http://www.w3.org/2000/svg" xmlns:xlink="http://www.w3.org/1999/xlink" x="0px" y="0px"
	 viewBox="0 0 110.4 72.6" style="enable-background:new 0 0 110.4 72.6;" xml:space="preserve">
<style type="text/css">
	.st0{fill:none;stroke:#64AAE0;stroke-width:4;stroke-linecap:round;stroke-linejoin:round;stroke-miterlimit:10;}
	.st1{fill:none;stroke:#64A9DF;stroke-width:4;stroke-linecap:round;stroke-linejoin:round;stroke-miterlimit:10;}
</style>
<g>
	<path class="st0" d="M-953.9,140.4v36.4H-975v-19.6c0-4.9-4-9-9-9h0c-4.9,0-9,4-9,9v19.6h-21.1v-36.4"/>
	<polyline class="st0" points="-1023.5,136.8 -984,107.9 -944.2,136.8 	"/>
</g>
<g>
	<polygon class="st1" points="99,12.5 56.6,41.8 13.9,12.6 	"/>
	<polyline class="st1" points="73.9,42.5 99.1,62 13.9,62 39.2,42.5 	"/>
	<line class="st1" x1="13.9" y1="12.6" x2="13.9" y2="62"/>
	<line class="st1" x1="99" y1="12.5" x2="99.1" y2="62"/>
</g>
<g>
	<circle class="st0" cx="-128.8" cy="47.1" r="34.7"/>
	<path class="st0" d="M-126.3,12.5c0,0,15.5,11.5,15.6,34.6c0,10.9-4.2,23.7-15.6,34.7"/>
	<path class="st0" d="M-130.4,12.5c0,0-15.5,11.5-15.6,34.6c0,10.9,4.2,23.7,15.6,34.7"/>
	<line class="st0" x1="-128.5" y1="12.4" x2="-128.5" y2="81.8"/>
	<line class="st0" x1="-163.5" y1="47.1" x2="-94.1" y2="47.1"/>
	<path class="st0" d="M-153.5,22.8c0,0,22.1,20.6,50.1,0.6"/>
	<path class="st0" d="M-152.3,72.6c5-3.9,24.1-16.3,47.5-0.5"/>
</g>
<path class="st1" d="M-307.3,61.8c-13.2-13.4-28.6-28.9-28.6-28.9c3.8-2.3,6.9-6.7,6.9-6.7c-7.1-10.5-17.6-17.8-17.6-17.8
	c-7.6,5.2-9.2,13.2-9.2,13.2c-2.5,16.4,23.7,40.3,23.7,40.3c20.4,19.9,34.2,19.9,34.2,19.9c8.2,0.1,15.7-9.4,15.7-9.4
	c-9-11.3-18-17.4-18-17.4S-303.9,57.9-307.3,61.8"/>
</svg>
