<?xml version="1.0" encoding="utf-8"?>
<!-- Generator: Adobe Illustrator 19.0.1, SVG Export Plug-In . SVG Version: 6.00 Build 0)  -->
<svg version="1.1" id="Layer_1" xmlns="http://www.w3.org/2000/svg" xmlns:xlink="http://www.w3.org/1999/xlink" x="0px" y="0px"
	 viewBox="0 0 60 37.5" style="enable-background:new 0 0 60 37.5;" xml:space="preserve">
<style type="text/css">
	.st0{fill:none;stroke:#64AAE0;stroke-width:4;stroke-linecap:round;stroke-linejoin:round;stroke-miterlimit:10;}
	.st1{fill:none;stroke:#64A9DF;stroke-width:4;stroke-linecap:round;stroke-linejoin:round;stroke-miterlimit:10;}
</style>
<g>
	<path class="st0" d="M-633.7,45.8v36.4h-21.1V62.6c0-4.9-4-9-9-9h0c-4.9,0-9,4-9,9v19.6h-21.1V45.8"/>
	<polyline class="st0" points="-703.2,42.2 -663.7,13.4 -624,42.2 	"/>
</g>
<g>
	<polygon class="st1" points="-219.9,31.4 -262.4,60.7 -305,31.5 	"/>
	<polyline class="st1" points="-245,61.4 -219.8,80.9 -305,80.9 -279.8,61.4 	"/>
	<line class="st1" x1="-305" y1="31.5" x2="-305" y2="80.9"/>
	<line class="st1" x1="-219.9" y1="31.4" x2="-219.8" y2="80.9"/>
</g>
<g>
	<circle class="st0" cx="-412.2" cy="49.2" r="34.7"/>
	<path class="st0" d="M-409.7,14.6c0,0,15.5,11.5,15.6,34.6c0,10.9-4.2,23.7-15.6,34.7"/>
	<path class="st0" d="M-413.8,14.6c0,0-15.5,11.5-15.6,34.6c0,10.9,4.2,23.7,15.6,34.7"/>
	<line class="st0" x1="-411.9" y1="14.5" x2="-411.9" y2="83.9"/>
	<line class="st0" x1="-446.9" y1="49.2" x2="-377.5" y2="49.2"/>
	<path class="st0" d="M-436.9,24.9c0,0,22.1,20.6,50.1,0.6"/>
	<path class="st0" d="M-435.7,74.8c5-3.9,24.1-16.3,47.5-0.5"/>
</g>
<path class="st1" d="M-519,65.9c-13.2-13.4-28.6-28.9-28.6-28.9c3.8-2.3,6.9-6.7,6.9-6.7c-7.1-10.5-17.6-17.8-17.6-17.8
	c-7.6,5.2-9.2,13.2-9.2,13.2c-2.5,16.4,23.7,40.3,23.7,40.3c20.4,19.9,34.2,19.9,34.2,19.9c8.2,0.1,15.7-9.4,15.7-9.4
	c-9-11.3-18-17.4-18-17.4S-515.7,62.1-519,65.9"/>
<circle class="st0" cx="-466.3" cy="176.4" r="34.7"/>
<polyline class="st0" points="-466.3,150.1 -466.3,178.2 -445.2,185.5 "/>
<circle class="st0" cx="-30.9" cy="19" r="16.2"/>
<polyline class="st0" points="-30.9,6.7 -30.9,19.8 -21.1,23.3 "/>
<g>
	<polygon class="st1" points="56.9,3.8 30.3,22.2 3.7,3.9 	"/>
	<polyline class="st1" points="41.2,22.6 57,34.8 3.7,34.8 19.4,22.6 	"/>
	<line class="st1" x1="3.7" y1="3.9" x2="3.7" y2="34.8"/>
	<line class="st1" x1="56.9" y1="3.8" x2="57" y2="34.8"/>
</g>
</svg>
